<svg xmlns="http://www.w3.org/2000/svg" viewBox="0 0 24 32"><defs><style>.cls-1{fill:#fff;}</style></defs><title>Asset 3 1</title><g id="Layer_2" data-name="Layer 2"><g id="Responsive_Icons" data-name="Responsive Icons"><path class="cls-1" d="M24,12A12,12,0,1,0,4,20.94S4,21,4,21V31a1,1,0,0,0,1.58.81L12,27.23l6.42,4.59A1,1,0,0,0,19,32a1,1,0,0,0,.46-.11A1,1,0,0,0,20,31V21a.63.63,0,0,0,0-.06A12,12,0,0,0,24,12ZM2,12A10,10,0,1,1,12,22,10,10,0,0,1,2,12ZM18,29.06l-5.42-3.87a1,1,0,0,0-1.16,0L6,29.06V22.38a11.93,11.93,0,0,0,12,0Z"/><path class="cls-1" d="M12,20a8,8,0,1,0-8-8A8,8,0,0,0,12,20ZM12,6a6,6,0,1,1-6,6A6,6,0,0,1,12,6Z"/></g></g></svg>