<svg xmlns="http://www.w3.org/2000/svg" viewBox="0 0 32 32"><defs><style>.cls-1{fill:#fff;}</style></defs><title>Asset 2</title><g id="Layer_2" data-name="Layer 2"><g id="Responsive_Icons" data-name="Responsive Icons"><path class="cls-1" d="M16,0A15.92,15.92,0,0,0,5.43,4L5,3.59V1A1,1,0,0,0,3,1V3H1A1,1,0,0,0,1,5H3.59L4,5.43A16,16,0,1,0,16,0Zm0,30A14,14,0,0,1,5.43,6.84L8.26,9.67A10,10,0,1,0,9.67,8.26L6.84,5.43A14,14,0,1,1,16,30ZM12.57,14A4,4,0,0,0,12,16a4,4,0,1,0,4-4,4,4,0,0,0-2,.57L11.1,9.69A8,8,0,1,1,9.69,11.1Zm2.73,2.73a1,1,0,0,0,1.41-1.41l-1.22-1.22A2,2,0,1,1,14,16a2,2,0,0,1,.07-.51Z"/></g></g></svg>